<?xml version="1.0" ?><!DOCTYPE svg  PUBLIC '-//W3C//DTD SVG 1.1//EN'  'http://www.w3.org/Graphics/SVG/1.1/DTD/svg11.dtd'><svg enable-background="new 0 0 200 200" height="200px" id="Layer_1" version="1.1" viewBox="0 0 200 200" width="200px" xml:space="preserve" xmlns="http://www.w3.org/2000/svg" xmlns:xlink="http://www.w3.org/1999/xlink"><g><path d="M137.635,28.744h-11.591c-1.513,0-2.539,0.28-3.088,0.852c-0.543,0.567-0.816,1.63-0.816,3.202v9.026   c0,1.569,0.273,2.635,0.816,3.202c0.549,0.567,1.575,0.852,3.088,0.852h11.591c1.522,0,2.558-0.285,3.103-0.852   c0.548-0.567,0.819-1.633,0.819-3.202v-9.026c0-1.571-0.271-2.635-0.819-3.202C140.192,29.024,139.157,28.744,137.635,28.744z    M137.958,42.795h-12.236V31.659h12.236V42.795z" fill="#5E889E"/><path d="M111.976,28.744h-11.59c-1.515,0-2.545,0.28-3.09,0.852c-0.545,0.567-0.821,1.63-0.821,3.202v9.026   c0,1.569,0.276,2.635,0.821,3.202s1.576,0.852,3.09,0.852h11.59c1.521,0,2.557-0.285,3.104-0.852   c0.545-0.567,0.818-1.633,0.818-3.202v-9.026c0-1.571-0.273-2.635-0.818-3.202C114.532,29.024,113.497,28.744,111.976,28.744z    M112.298,42.795h-12.239V31.659h12.239V42.795z" fill="#5E889E"/><path d="M180.178,0H19.825C13.591,0,8.492,5.099,8.492,11.33v177.342C8.492,194.9,13.591,200,19.825,200h160.353   c6.23,0,11.33-5.1,11.33-11.328V11.33C191.508,5.099,186.408,0,180.178,0z M52.579,177.663c0,2.941-2.408,5.349-5.351,5.349H30.829   c-2.941,0-5.351-2.407-5.351-5.349v-16.396c0-2.945,2.41-5.354,5.351-5.354h16.399c2.943,0,5.351,2.408,5.351,5.354V177.663z    M52.579,137.018c0,2.941-2.408,5.345-5.351,5.345H30.829c-2.941,0-5.351-2.403-5.351-5.345v-16.401   c0-2.941,2.41-5.349,5.351-5.349h16.399c2.943,0,5.351,2.407,5.351,5.349V137.018z M52.579,96.371c0,2.941-2.408,5.346-5.351,5.346   H30.829c-2.941,0-5.351-2.405-5.351-5.346V79.97c0-2.941,2.41-5.349,5.351-5.349h16.399c2.943,0,5.351,2.408,5.351,5.349V96.371z    M93.224,177.663c0,2.941-2.403,5.349-5.347,5.349H71.477c-2.941,0-5.347-2.407-5.347-5.349v-16.396   c0-2.945,2.405-5.354,5.347-5.354h16.401c2.944,0,5.347,2.408,5.347,5.354V177.663z M93.224,137.018   c0,2.941-2.403,5.345-5.347,5.345H71.477c-2.941,0-5.347-2.403-5.347-5.345v-16.401c0-2.941,2.405-5.349,5.347-5.349h16.401   c2.944,0,5.347,2.407,5.347,5.349V137.018z M93.224,96.371c0,2.941-2.403,5.346-5.347,5.346H71.477   c-2.941,0-5.347-2.405-5.347-5.346V79.97c0-2.941,2.405-5.349,5.347-5.349h16.401c2.944,0,5.347,2.408,5.347,5.349V96.371z    M133.872,177.663c0,2.941-2.405,5.349-5.347,5.349h-16.403c-2.941,0-5.347-2.407-5.347-5.349v-16.396   c0-2.945,2.405-5.354,5.347-5.354h16.403c2.941,0,5.347,2.408,5.347,5.354V177.663z M133.872,137.018   c0,2.941-2.405,5.345-5.347,5.345h-16.403c-2.941,0-5.347-2.403-5.347-5.345v-16.401c0-2.941,2.405-5.349,5.347-5.349h16.403   c2.941,0,5.347,2.407,5.347,5.349V137.018z M133.872,96.371c0,2.941-2.405,5.346-5.347,5.346h-16.403   c-2.941,0-5.347-2.405-5.347-5.346V79.97c0-2.941,2.405-5.349,5.347-5.349h16.403c2.941,0,5.347,2.408,5.347,5.349V96.371z    M174.519,177.663c0,2.941-2.405,5.349-5.35,5.349h-16.398c-2.943,0-5.349-2.407-5.349-5.349v-57.047   c0-2.941,2.405-5.349,5.349-5.349h16.398c2.944,0,5.35,2.407,5.35,5.349V177.663z M174.519,96.371c0,2.941-2.405,5.346-5.35,5.346   h-16.398c-2.943,0-5.349-2.405-5.349-5.346V79.97c0-2.941,2.405-5.349,5.349-5.349h16.398c2.944,0,5.35,2.408,5.35,5.349V96.371z    M174.519,52.289c0,2.939-2.405,5.345-5.35,5.345H30.829c-2.941,0-5.351-2.405-5.351-5.345V22.336c0-2.941,2.41-5.349,5.351-5.349   h138.34c2.944,0,5.35,2.407,5.35,5.349V52.289z" fill="#5E889E"/><path d="M163.295,28.744h-11.59c-1.513,0-2.541,0.28-3.089,0.852c-0.545,0.567-0.818,1.63-0.818,3.202v9.026   c0,1.569,0.273,2.635,0.818,3.202c0.548,0.567,1.576,0.852,3.089,0.852h11.59c1.521,0,2.561-0.285,3.105-0.852   c0.543-0.567,0.819-1.633,0.819-3.202v-9.026c0-1.571-0.276-2.635-0.819-3.202C165.855,29.024,164.816,28.744,163.295,28.744z    M163.619,42.795h-12.236V31.659h12.236V42.795z" fill="#5E889E"/></g></svg>