<?xml version="1.0" ?><!DOCTYPE svg  PUBLIC '-//W3C//DTD SVG 1.1//EN'  'http://www.w3.org/Graphics/SVG/1.1/DTD/svg11.dtd'><svg enable-background="new 0 0 200 200" height="200px" id="Layer_1" version="1.1" viewBox="0 0 200 200" width="200px" xml:space="preserve" xmlns="http://www.w3.org/2000/svg" xmlns:xlink="http://www.w3.org/1999/xlink"><g><path d="M176.855,30.636c-1.166-1.166-2.697-1.751-4.229-1.751H27.372c-1.53,0-3.062,0.585-4.23,1.751   c-1.166,1.169-1.751,2.699-1.751,4.23v99.969h157.218V34.866C178.608,33.335,178.022,31.805,176.855,30.636z M100,32.233   c0.984,0,1.782,0.795,1.782,1.781c0,0.98-0.798,1.78-1.782,1.78c-0.983,0-1.782-0.8-1.782-1.78   C98.218,33.028,99.017,32.233,100,32.233z M168.354,124.582H31.644V39.139h136.71V124.582z" fill="#5E889E"/><path d="M21.391,138.966L0.628,159.669c-0.595,0.591-0.806,1.506-0.465,2.328c0.341,0.821,1.134,1.319,1.974,1.319   h195.726c0.839,0,1.634-0.498,1.975-1.319c0.341-0.822,0.128-1.737-0.465-2.328l-20.764-20.703H21.391z M177.531,150.67   c0.422,0.488,0.543,1.198,0.257,1.827c-0.29,0.625-0.906,0.993-1.554,0.993h-55.591l0.312,1.429c0.063,0.292,0,0.609-0.202,0.862   c-0.204,0.248-0.501,0.379-0.8,0.379H80.044c-0.297,0-0.593-0.131-0.798-0.379c-0.201-0.253-0.266-0.57-0.201-0.862l0.312-1.429   H23.764c-0.646,0-1.266-0.368-1.552-0.993c-0.288-0.629-0.165-1.339,0.255-1.827l5.651-6.577H171.88L177.531,150.67z" fill="#5E889E"/><path d="M197.862,164.6h-80.556c-0.087,0.202-0.207,0.395-0.354,0.569c-0.438,0.52-1.08,0.818-1.762,0.818H84.81   c-0.682,0-1.324-0.299-1.765-0.818c-0.146-0.175-0.265-0.367-0.354-0.569H2.137c-0.797,0-1.54-0.28-2.134-0.757v2.145   c0,1.311,0.501,2.624,1.501,3.623c1.002,1.003,2.313,1.504,3.625,1.504h189.74c1.313,0,2.624-0.501,3.623-1.504   c1.004-0.999,1.504-2.313,1.504-3.623v-2.145C199.402,164.319,198.659,164.6,197.862,164.6z M18.072,168.976   c-0.616,0-1.116-0.501-1.116-1.12c0-0.613,0.5-1.118,1.116-1.118c0.618,0,1.118,0.505,1.118,1.118   C19.19,168.475,18.69,168.976,18.072,168.976z M23.446,168.976c-0.616,0-1.117-0.501-1.117-1.12c0-0.613,0.501-1.118,1.117-1.118   c0.618,0,1.121,0.505,1.121,1.118C24.567,168.475,24.064,168.976,23.446,168.976z M28.822,168.976c-0.618,0-1.119-0.501-1.119-1.12   c0-0.613,0.501-1.118,1.119-1.118c0.616,0,1.117,0.505,1.117,1.118C29.939,168.475,29.438,168.976,28.822,168.976z" fill="#5E889E"/><g><path d="M66.291,114.916H54.33v-12.547c0-0.33,0.126-0.657,0.376-0.908c0.249-0.249,0.579-0.374,0.904-0.374h9.399    c0.33,0,0.657,0.125,0.907,0.374c0.249,0.251,0.374,0.578,0.374,0.908V114.916z" fill="#5E889E"/><path d="M90.856,114.916H78.894V84.317c0-0.329,0.126-0.655,0.376-0.906c0.249-0.249,0.579-0.377,0.906-0.377    h9.397c0.33,0,0.659,0.128,0.909,0.377c0.249,0.25,0.374,0.577,0.374,0.906V114.916z" fill="#5E889E"/><path d="M115.426,114.916h-11.965V94.143c0-0.327,0.125-0.657,0.376-0.906c0.249-0.25,0.578-0.376,0.904-0.376h9.4    c0.326,0,0.655,0.126,0.905,0.376c0.249,0.249,0.379,0.579,0.379,0.906V114.916z" fill="#5E889E"/><path d="M143.242,71.823c0.459,0,0.904-0.249,1.134-0.685c0.229-0.434,0.185-0.941-0.075-1.321l-9.235-13.533    c-0.23-0.339-0.619-0.559-1.057-0.559c-0.44,0-0.831,0.219-1.061,0.559l-9.236,13.533c-0.259,0.38-0.304,0.887-0.075,1.321    c0.23,0.436,0.674,0.685,1.133,0.685h3.256v43.093h11.963V71.823H143.242z" fill="#5E889E"/></g><path d="M38.053,118.176V52.374c0-0.271-0.103-0.542-0.31-0.749s-0.478-0.31-0.75-0.31h-0.017   c-0.271,0-0.543,0.103-0.747,0.31c-0.21,0.207-0.312,0.478-0.312,0.749v67.937h127.107c0.269,0,0.541-0.105,0.747-0.311   c0.208-0.206,0.311-0.479,0.311-0.751v-0.016c0-0.271-0.103-0.541-0.311-0.75c-0.206-0.205-0.479-0.308-0.747-0.308H38.053z" fill="#5E889E"/></g></svg>