<?xml version="1.0" ?><!DOCTYPE svg  PUBLIC '-//W3C//DTD SVG 1.1//EN'  'http://www.w3.org/Graphics/SVG/1.1/DTD/svg11.dtd'><svg enable-background="new 0 0 200 200" height="200px" id="Layer_1" version="1.1" viewBox="0 0 200 200" width="200px" xml:space="preserve" xmlns="http://www.w3.org/2000/svg" xmlns:xlink="http://www.w3.org/1999/xlink"><g><path d="M155.813,112.706c-0.422-1.85-1.445-3.597-3.061-5.008c-1.624-1.401-3.607-2.246-5.663-2.557l-33.054-6.396   l9.563,6.347l-15.097,47.324L100,117.264l-8.505,35.153l-15.09-47.324l9.559-6.347l-33.054,6.396   c-2.056,0.311-4.038,1.155-5.664,2.557c-1.616,1.411-2.64,3.158-3.06,5.008l-9.8,43.046l18.487,6.415   c6.137,6.38,23.317,11.073,43.922,11.52H100h3.203c20.605-0.446,37.783-5.14,43.922-11.52l18.488-6.415L155.813,112.706z" fill="#5E889E"/><polygon fill="#5E889E" points="100,103.551 92.381,106.279 100,117.264 107.621,106.279  "/><path d="M128.289,61.162c0-19.537-8.04-34.848-28.289-34.848c-20.251,0-28.287,15.312-28.287,34.848   c-2.118,1.105-3.509,3.698-1.429,9.255c1.049,2.79,2.898,5.128,4.467,6.352c5.771,14.368,17.12,25.46,25.249,25.46   c8.129,0,19.479-11.092,25.247-25.46c1.571-1.224,3.417-3.563,4.469-6.352C131.796,64.859,130.406,62.267,128.289,61.162z" fill="#5E889E"/><path d="M31.956,145.935c-9.436-1.115-16.874-3.665-19.969-6.881L0,134.894l6.354-27.909   c0.273-1.199,0.938-2.333,1.985-3.246c1.054-0.908,2.339-1.458,3.672-1.658l23.215-5.317c-3.493-2.987-6.884-7.671-9.053-13.08   c-1.018-0.792-2.217-2.308-2.898-4.118c-1.35-3.601-0.448-5.282,0.926-6c0-12.666,5.208-22.593,18.339-22.593h0.003   c13.128,0,18.339,9.927,18.339,22.593c1.374,0.718,2.276,2.399,0.928,6c-0.682,1.81-1.881,3.326-2.899,4.118   c-2.169,5.408-5.561,10.092-9.053,13.08l10.265,2.352l-7.991,1.545c-2.95,0.46-5.667,1.705-7.875,3.612   c-2.295,2.005-3.855,4.571-4.506,7.423L31.956,145.935z M193.646,106.984c-0.275-1.199-0.938-2.333-1.985-3.246   c-1.052-0.908-2.337-1.458-3.672-1.658l-23.214-5.317c3.493-2.987,6.883-7.671,9.055-13.08c1.019-0.792,2.215-2.308,2.896-4.118   c1.35-3.601,0.448-5.282-0.925-6c0-12.666-5.214-22.593-18.343-22.593l0,0c-13.13,0-18.341,9.927-18.341,22.593   c-1.372,0.718-2.275,2.399-0.925,6c0.679,1.81,1.878,3.326,2.896,4.118c2.171,5.408,5.562,10.092,9.055,13.08l-10.267,2.352   l7.991,1.545c2.948,0.46,5.667,1.705,7.856,3.594c2.314,2.022,3.871,4.589,4.522,7.437l7.796,34.244   c9.436-1.115,16.874-3.665,19.97-6.881l11.986-4.16L193.646,106.984z" fill="#5E889E"/></g></svg>