<?xml version="1.0" ?><!DOCTYPE svg  PUBLIC '-//W3C//DTD SVG 1.1//EN'  'http://www.w3.org/Graphics/SVG/1.1/DTD/svg11.dtd'><svg enable-background="new 0 0 200 200" height="200px" id="Layer_1" version="1.1" viewBox="0 0 200 200" width="200px" xml:space="preserve" xmlns="http://www.w3.org/2000/svg" xmlns:xlink="http://www.w3.org/1999/xlink"><g><path d="M167.353,105.032l-19.623-39.346c-0.222-0.435-0.516-0.84-0.89-1.179c-0.375-0.338-0.795-0.586-1.233-0.743   l-23.01-8.27c-1.603-0.576-3.32-0.885-5.107-0.869c-1.785,0.019-3.494,0.362-5.089,0.969l-17.459,6.66   c-1.229,0.47-2.449,1.01-3.652,1.625c-0.402,0.208-0.797,0.433-1.19,0.654c-1.318-0.714-2.694-1.343-4.13-1.878   c-4.58-1.712-9.27-2.29-13.809-1.902l-11.746,1.008c-0.511,0.044-1.027,0.202-1.509,0.485c-0.482,0.284-0.88,0.667-1.193,1.11   l-26.448,37.651c-0.545,0.773-0.836,1.757-0.747,2.798c0.087,1.041,0.535,1.954,1.197,2.61l11.504,11.401   c-0.631,1.155-1.031,2.452-1.123,3.84c-0.166,2.494,0.653,4.902,2.299,6.781c1.648,1.878,3.927,3.003,6.423,3.166   c0.133,0.009,0.268,0.009,0.403,0.014c-1.023,3.307-0.186,7.063,2.479,9.585c1.595,1.51,3.64,2.39,5.813,2.531   c-1.4,3.47-0.643,7.608,2.218,10.315c1.745,1.654,4.027,2.563,6.432,2.563c2.504,0,4.84-0.978,6.604-2.744   c0.656,4.238,4.177,7.617,8.63,7.908c0.205,0.014,0.415,0.023,0.62,0.023c1.138,0,2.228-0.215,3.242-0.593   c1.656,1.104,3.63,1.712,5.731,1.627c2.582-0.108,4.898-1.247,6.63-3.029l-6.327-6.313c0.015-0.146,0.042-0.286,0.048-0.437   c0.082-1.24-0.088-2.44-0.457-3.555l12.949,12.916c1.634,0.665,3.412,0.998,5.264,0.923c3.706-0.151,7.007-1.901,9.345-4.609   l1.296-1.503c0.12-0.142,0.212-0.302,0.292-0.474l-19.937-19.882c-0.514-0.509-0.555-1.356-0.099-1.889   c0.457-0.53,1.249-0.548,1.759-0.039l23.711,23.645c1.292,0.453,2.675,0.674,4.112,0.615c3.258-0.133,6.165-1.672,8.22-4.057   l3.131-3.624c0.718-0.836,1.146-1.964,1.106-3.19l-20.807-20.744c-0.508-0.51-0.554-1.359-0.098-1.888   c0.46-0.531,1.25-0.549,1.759-0.04l20.905,20.845c0.858,0.229,1.759,0.341,2.685,0.304c2.671-0.108,5.047-1.368,6.729-3.321   l0.841-0.974c1.683-1.949,2.675-4.589,2.574-7.46c-0.102-2.87-1.272-5.42-3.086-7.23l-5.581-5.564l1.41,1.404l15.09-13.626   c0.641-0.576,1.106-1.383,1.276-2.331C167.899,106.758,167.746,105.823,167.353,105.032z M51.08,127.569   c-1.415-0.092-2.709-0.73-3.646-1.798c-0.936-1.065-1.398-2.432-1.304-3.85c0.179-2.783,2.509-4.962,5.291-4.962   c0.118,0,0.238,0.003,0.356,0.01c1.415,0.094,2.709,0.731,3.646,1.799c0.936,1.067,1.398,2.433,1.307,3.851   C56.536,125.52,54.015,127.765,51.08,127.569z M60.127,139.719c-1.363,0-2.659-0.514-3.649-1.451   c-2.101-1.986-2.215-5.333-0.265-7.449c0.101-0.105,2.173-2.297,3.167-3.343l0.522-0.555c1.014-1.07,2.384-1.66,3.858-1.66   c1.364,0,2.661,0.517,3.649,1.456c1.031,0.974,1.622,2.291,1.66,3.711c0.039,1.415-0.477,2.764-1.451,3.792l-1.478,1.563   c-0.316,0.332-0.655,0.691-1.002,1.057c-0.055,0.062-0.116,0.124-0.169,0.182c-0.258,0.271-0.486,0.511-0.663,0.696   c-0.101,0.109-0.202,0.218-0.306,0.324c-0.026,0.027-0.046,0.05-0.048,0.053C62.946,139.143,61.585,139.719,60.127,139.719z    M71.984,150.945c-1.009,1.048-2.366,1.624-3.823,1.624c-1.364,0-2.663-0.517-3.65-1.455c-2.1-1.986-2.215-5.332-0.271-7.438   c0.046-0.05,1.263-1.338,2.642-2.793c0-0.001,0-0.001,0-0.001l1.024-1.081c1.793-1.898,2.381-2.515,2.579-2.73   c0.023-0.021,0.05-0.046,0.069-0.068l0,0L70.558,137c0.173-0.187,0.274-0.291,0.277-0.294c1.012-1.07,2.384-1.661,3.859-1.661   c1.364,0,2.658,0.516,3.649,1.454c1.031,0.976,1.619,2.294,1.658,3.71c0.039,1.421-0.477,2.769-1.455,3.802   C78.451,144.111,72.189,150.727,71.984,150.945z M83.66,157.745c-2.922-0.194-5.144-2.728-4.951-5.648   c0.183-2.785,2.504-4.964,5.29-4.964c0.118,0,0.238,0.004,0.356,0.011c2.921,0.192,5.143,2.726,4.953,5.647   C89.116,155.69,86.599,157.938,83.66,157.745z M148.585,120.894l-41.334-41.21l0,0l0.466-1.177c0.241-0.614,0.21-1.339-0.143-1.949   c-0.354-0.608-0.946-0.962-1.566-0.995l-3.072-0.184l0,0L99.58,75.18l-0.255,3.978c-0.003,0.083-0.668,9.129-5.281,17.302   c-4.729,8.387-10.995,11.279-11.95,11.465c-1.067,0.207-2.186,0.404-3.116,0.404c-0.639,0-1.131-0.09-1.552-0.283l-1.569-0.727   c-0.658-0.305-1.16-0.865-1.425-1.579c-0.258-0.689-0.255-1.442,0-2.129l15.721-34.502l2.673-1.761l1.077-0.41h-0.002l19.758-7.536   c1.242-0.473,2.543-0.721,3.864-0.733l0.11-0.001c1.282,0,2.552,0.222,3.768,0.66l23.011,8.27l19.625,39.345L148.585,120.894z" fill="#5E889E"/><path d="M170.949,40.557l-15.534,7.745c-2.234,1.117-4.046,3.085-4.902,5.641c-0.855,2.557-0.59,5.218,0.521,7.457   l20.339,40.775c1.115,2.233,3.082,4.048,5.643,4.9c2.554,0.856,5.215,0.595,7.453-0.521L200,98.805L170.949,40.557z    M184.429,98.829c-2.063,0-3.741-1.673-3.741-3.739c0-2.068,1.678-3.745,3.741-3.745c2.067,0,3.745,1.677,3.745,3.745   C188.174,97.156,186.496,98.829,184.429,98.829z" fill="#5E889E"/><path d="M0,89.914l14.202,9.977c2.044,1.438,4.637,2.093,7.293,1.628c2.658-0.463,4.872-1.961,6.307-4.004   l26.193-37.286c1.439-2.043,2.094-4.639,1.631-7.293c-0.467-2.657-1.959-4.873-4.005-6.311L37.417,36.65L0,89.914z M12.25,88   c0.308-2.044,2.215-3.451,4.256-3.144c2.046,0.309,3.451,2.217,3.145,4.26c-0.309,2.046-2.214,3.453-4.259,3.142   C13.347,91.952,11.941,90.046,12.25,88z" fill="#5E889E"/></g></svg>